<svg xmlns="http://www.w3.org/2000/svg" version="1.1" xmlns:xlink="http://www.w3.org/1999/xlink" xmlns:svgjs="http://svgjs.dev/svgjs" width="1000" height="1000" viewBox="0 0 1000 1000"><rect width="1000" height="1000" fill="#000000"></rect><g transform="matrix(0.7,0,0,0.7,149.5757733292121,390.32632853600285)"><svg viewBox="0 0 396 124" data-background-color="#ffffff" preserveAspectRatio="xMidYMid meet" height="313" width="1000" xmlns="http://www.w3.org/2000/svg" xmlns:xlink="http://www.w3.org/1999/xlink"><g id="tight-bounds" transform="matrix(1,0,0,1,0.23999108804571279,0.0699920654296875)"><svg viewBox="0 0 395.52 123.86001460959007" height="123.86001460959007" width="395.52"><g><svg viewBox="0 0 593.2074837953515 185.76731292832324" height="123.86001460959007" width="395.52"><g><rect width="12.103370717810375" height="185.76731292832324" x="153.8998965387706" y="0" fill="#ffffff" opacity="1" stroke-width="0" stroke="transparent" fill-opacity="1" class="rect-o-0" data-fill-palette-color="primary" rx="1%" id="o-0" data-palette-color="#233565"></rect></g><g transform="matrix(1,0,0,1,197.6874837953516,0.46210774360278606)"><svg viewBox="0 0 395.52 184.84309744111766" height="184.84309744111766" width="395.52"><g id="textblocktransform"><svg viewBox="0 0 395.52 184.84309744111766" height="184.84309744111766" width="395.52" id="textblock"><g><svg viewBox="0 0 395.52 134.2119340329835" height="134.2119340329835" width="395.52"><g transform="matrix(1,0,0,1,0,0)"><svg width="395.52" viewBox="3.049999952316284 -33.70000076293945 100.03999328613281 33.95000076293945" height="134.2119340329835" data-palette-color="#233565"><g class="wordmark-text-0" data-fill-palette-color="primary" id="text-0"><path d="M24.1-6.8Q25.05-6.8 25.53-6.08 26-5.35 26-4.5L26-4.5Q26-3.45 25.68-3.03 25.35-2.6 24.45-2.15L24.45-2.15Q22.35-1.15 19.25-0.55 16.15 0.05 12.6 0.05L12.6 0.05Q8.15 0.05 6.08-1.45 4-2.95 3.53-5.08 3.05-7.2 3.05-10.65L3.05-10.65Q3.05-14.35 3.35-17.93 3.65-21.5 4.4-27.05L4.4-27.05Q4.75-29.45 6.3-30.53 7.85-31.6 9.7-31.6L9.7-31.6Q11.25-31.6 14.75-31.7L14.75-31.7 19.1-31.75Q21.8-31.75 23-31.6L23-31.6Q24.5-31.3 25.23-30.93 25.95-30.55 25.95-29.65L25.95-29.65Q25.95-28.65 25.28-27.7 24.6-26.75 23.25-26.75L23.25-26.75Q21.7-26.75 18.8-26.95L18.8-26.95Q15.9-27.15 14.45-27.15L14.45-27.15Q13.2-27.15 12-27L12-27Q10.6-26.9 10-26.65 9.4-26.4 9.3-25.8L9.3-25.8Q8.6-20.65 8.6-18.2L8.6-18.2Q9.75-18.05 10.85-18.05L10.85-18.05Q12.25-18.05 13.85-18.2 15.45-18.35 15.9-18.4L15.9-18.4Q18.55-18.65 20.45-18.65L20.45-18.65Q21.55-18.65 22.13-18.25 22.7-17.85 22.7-17.15L22.7-17.15Q22.7-16.05 22.13-15.45 21.55-14.85 20.1-14.55L20.1-14.55Q18.35-14.2 15.78-14 13.2-13.8 10.75-13.8L10.75-13.8Q9.9-13.8 8.4-13.9L8.4-13.9Q8.25-10.85 8.25-8.25L8.25-8.25Q8.25-4.7 12.95-4.7L12.95-4.7Q15.45-4.7 17.1-5.05 18.75-5.4 20.9-6.05L20.9-6.05Q22.9-6.8 24.1-6.8L24.1-6.8ZM50.2-31.3Q50.2-30.8 49.95-28.55L49.95-28.55Q49.4-23.05 49.4-17.4L49.4-17.4Q49.4-12.45 49.55-9.85 49.7-7.25 50.3-5.88 50.9-4.5 52.15-4.5L52.15-4.5Q54.55-4.5 54.55-2.9L54.55-2.9Q54.55-1.85 53.5-1.13 52.45-0.4 51.2-0.4L51.2-0.4Q49.7-0.4 48.4-1.1 47.1-1.8 46.35-3.25L46.35-3.25Q45.3-1.7 43.32-0.78 41.35 0.15 39.5 0.15L39.5 0.15Q36.65 0.15 34.45-1.05 32.25-2.25 31.05-4.33 29.85-6.4 29.85-8.9L29.85-8.9Q29.85-11.3 30.42-13.53 31-15.75 32-17.2L32-17.2Q33.35-19.1 35.62-20.23 37.9-21.35 40.1-21.35L40.1-21.35Q41.45-21.35 42.65-20.83 43.85-20.3 44.75-19.55L44.75-19.55Q44.75-22.9 44.7-23.75L44.7-23.75 44.7-24.8Q44.7-29.45 45.3-31.6L45.3-31.6Q45.85-33.7 47.95-33.7L47.95-33.7Q49.1-33.7 49.65-33.2 50.2-32.7 50.2-31.3L50.2-31.3ZM34.8-9Q34.8-6.7 36.12-5.3 37.45-3.9 39.3-3.9L39.3-3.9Q41.95-3.9 43.22-5.55 44.5-7.2 44.5-9.8L44.5-9.8 44.45-14.75Q42.5-16.9 40.4-16.9L40.4-16.9Q38.95-16.9 37.67-16.18 36.4-15.45 35.65-14L35.65-14Q34.8-12.35 34.8-9L34.8-9ZM80.6-2.4Q80.6-1.3 79.42-0.55 78.25 0.2 77.25 0.2L77.25 0.2Q75.35 0.2 74.22-0.28 73.1-0.75 72.15-2.05L72.15-2.05Q70.85-0.9 68.6-0.33 66.35 0.25 64.45 0.25L64.45 0.25Q61.35 0.25 59.35-1.43 57.35-3.1 57.35-6.35L57.35-6.35Q57.35-7.75 58.1-8.93 58.85-10.1 60.15-11L60.15-11Q61.6-11.95 63.45-12.48 65.3-13 67.3-13L67.3-13Q68.35-13 69.8-12.6 71.25-12.2 72.05-11.75L72.05-11.75 72.05-12.55Q72.05-15.25 70.75-16.28 69.45-17.3 66.55-17.3L66.55-17.3Q65.7-17.3 64.87-16.95 64.05-16.6 63-16L63-16Q61.6-15.25 60.35-15.25L60.35-15.25Q59.9-15.25 59.5-15.88 59.1-16.5 59.1-17L59.1-17Q59.1-18.45 60.47-19.5 61.85-20.55 63.75-21.08 65.65-21.6 67.15-21.6L67.15-21.6Q68.65-21.6 70.6-21.03 72.55-20.45 73.8-19.45L73.8-19.45Q75.3-18.15 76.12-16.43 76.95-14.7 76.95-12.65L76.95-12.65Q76.95-12 76.85-10.7L76.85-10.7Q76.75-9.3 76.75-8.3L76.75-8.3Q76.75-7.85 76.65-6.95L76.65-6.95Q76.55-5.85 76.55-5.2L76.55-5.2Q76.55-4.6 77-4.17 77.45-3.75 78.05-3.75L78.05-3.75 79.45-3.8Q80-3.8 80.3-3.4 80.6-3 80.6-2.4L80.6-2.4ZM64.5-3.7Q66.65-3.7 68.1-4.15 69.55-4.6 71.6-5.8L71.6-5.8Q71.8-6.65 71.85-8.05L71.85-8.05Q69.1-9.35 67.3-9.35L67.3-9.35Q65.25-9.35 63.65-8.6 62.05-7.85 62.05-5.95L62.05-5.95Q62.05-5 62.85-4.35 63.65-3.7 64.5-3.7L64.5-3.7ZM101.64-16.7Q101.64-14.5 99.39-14.5L99.39-14.5Q98.64-14.5 98.14-14.85 97.64-15.2 97.04-15.9L97.04-15.9Q95.54-17.55 94.44-17.55L94.44-17.55Q92.99-17.55 91.62-16.7 90.24-15.85 89.39-14.3 88.54-12.75 88.54-10.85L88.54-10.85Q88.54-8.75 89.37-7.35 90.19-5.95 91.94-4.95L91.94-4.95Q92.59-4.6 93.47-4.4 94.34-4.2 94.99-4.2L94.99-4.2Q96.44-4.2 98.64-5.35L98.64-5.35Q99.44-5.75 99.99-5.95 100.54-6.15 101.14-6.15L101.14-6.15Q101.69-6.15 102.39-5.65 103.09-5.15 103.09-4.4L103.09-4.4Q103.09-2.9 101.69-1.88 100.29-0.85 98.27-0.33 96.24 0.2 94.39 0.2L94.39 0.2Q91.44 0.2 88.92-1.15 86.39-2.5 84.89-4.88 83.39-7.25 83.39-10.25L83.39-10.25Q83.39-13.45 84.84-16.1 86.29-18.75 88.74-20.25 91.19-21.75 94.09-21.75L94.09-21.75Q95.74-21.75 97.49-21.15 99.24-20.55 100.44-19.4 101.64-18.25 101.64-16.7L101.64-16.7Z" fill="#ffffff" data-fill-palette-color="primary"></path></g></svg></g></svg></g><g transform="matrix(1,0,0,1,0,165.8961505717541)"><svg viewBox="0 0 232.209792 18.946946869363565" height="18.946946869363565" width="232.209792"><g transform="matrix(1,0,0,1,0,0)"><svg width="232.209792" viewBox="0.4000000059604645 -35.95000076293945 582.0899658203125 47.5" height="18.946946869363565" data-palette-color="#233565"><path d="M9.4-19.4L9.4-19.4 7.3-13.25 19-13.25 16.9-19.4Q15.9-22.35 15-25.05 14.1-27.75 13.25-30.8L13.25-30.8 13.05-30.8Q12.2-27.75 11.3-25.05 10.4-22.35 9.4-19.4ZM2.7 0L0.4 0 12-32.95 14.3-32.95 25.9 0 23.5 0 19.65-11.3 6.6-11.3 2.7 0ZM38.85 0.6L38.85 0.6Q34.3 0.6 31.6-2.63 28.9-5.85 28.9-11.95L28.9-11.95Q28.9-14.85 29.75-17.2 30.6-19.55 32.07-21.2 33.55-22.85 35.47-23.73 37.4-24.6 39.55-24.6L39.55-24.6Q41.75-24.6 43.37-23.83 45-23.05 46.8-21.65L46.8-21.65 46.7-26.05 46.7-35.95 48.9-35.95 48.9 0 47 0 46.8-3.1 46.65-3.1Q45.2-1.65 43.22-0.53 41.25 0.6 38.85 0.6ZM39.15-1.35L39.15-1.35Q41.15-1.35 42.97-2.38 44.8-3.4 46.7-5.3L46.7-5.3 46.7-19.55Q44.8-21.25 43.12-21.95 41.45-22.65 39.7-22.65L39.7-22.65Q37.9-22.65 36.35-21.83 34.8-21 33.67-19.58 32.55-18.15 31.9-16.18 31.25-14.2 31.25-11.95L31.25-11.95Q31.25-9.55 31.77-7.6 32.3-5.65 33.3-4.28 34.3-2.9 35.77-2.13 37.25-1.35 39.15-1.35ZM65.7 0L63.1 0 54.1-24 56.5-24 61.9-8.95Q62.45-7.2 63.1-5.45 63.75-3.7 64.3-2.05L64.3-2.05 64.5-2.05Q65.09-3.7 65.72-5.45 66.34-7.2 66.95-8.95L66.95-8.95 72.34-24 74.59-24 65.7 0ZM84.04 0.6L84.04 0.6Q82.59 0.6 81.34 0.2 80.09-0.2 79.14-1 78.19-1.8 77.64-3.05 77.09-4.3 77.09-6L77.09-6Q77.09-10 80.82-12.08 84.54-14.15 92.59-15.05L92.59-15.05Q92.59-16.4 92.39-17.78 92.19-19.15 91.54-20.23 90.89-21.3 89.79-21.98 88.69-22.65 86.89-22.65L86.89-22.65Q84.49-22.65 82.49-21.7 80.49-20.75 79.24-19.85L79.24-19.85 78.24-21.5Q78.89-21.95 79.82-22.5 80.74-23.05 81.89-23.5 83.04-23.95 84.39-24.28 85.74-24.6 87.19-24.6L87.19-24.6Q89.29-24.6 90.74-23.88 92.19-23.15 93.09-21.9 93.99-20.65 94.39-18.98 94.79-17.3 94.79-15.35L94.79-15.35 94.79 0 92.89 0 92.69-3.1 92.54-3.1Q90.69-1.65 88.57-0.53 86.44 0.6 84.04 0.6ZM84.44-1.3L84.44-1.3Q86.54-1.3 88.44-2.3 90.34-3.3 92.59-5.2L92.59-5.2 92.59-13.35Q88.89-12.9 86.34-12.25 83.79-11.6 82.24-10.7 80.69-9.8 80.02-8.65 79.34-7.5 79.34-6.1L79.34-6.1Q79.34-4.8 79.74-3.9 80.14-3 80.84-2.43 81.54-1.85 82.47-1.58 83.39-1.3 84.44-1.3ZM105.54 0L103.34 0 103.34-24 105.24-24 105.44-20.3 105.59-20.3Q107.44-22.15 109.39-23.38 111.34-24.6 113.84-24.6L113.84-24.6Q117.59-24.6 119.34-22.35 121.09-20.1 121.09-15.4L121.09-15.4 121.09 0 118.89 0 118.89-15.1Q118.89-18.95 117.62-20.78 116.34-22.6 113.39-22.6L113.39-22.6Q111.24-22.6 109.49-21.48 107.74-20.35 105.54-18.1L105.54-18.1 105.54 0ZM138.84 0.6L138.84 0.6Q136.49 0.6 134.51-0.25 132.54-1.1 131.06-2.7 129.59-4.3 128.76-6.63 127.94-8.95 127.94-11.95L127.94-11.95Q127.94-14.95 128.84-17.32 129.74-19.7 131.24-21.3 132.74-22.9 134.71-23.75 136.69-24.6 138.89-24.6L138.89-24.6Q141.39-24.6 143.04-23.7 144.69-22.8 145.94-21.65L145.94-21.65 144.64-20.1Q143.49-21.2 142.09-21.93 140.69-22.65 138.94-22.65L138.94-22.65Q137.09-22.65 135.51-21.88 133.94-21.1 132.76-19.68 131.59-18.25 130.91-16.3 130.24-14.35 130.24-11.95L130.24-11.95Q130.24-9.6 130.86-7.65 131.49-5.7 132.61-4.3 133.74-2.9 135.36-2.13 136.99-1.35 138.94-1.35L138.94-1.35Q140.84-1.35 142.46-2.15 144.09-2.95 145.34-4.1L145.34-4.1 146.49-2.55Q144.94-1.2 143.04-0.3 141.14 0.6 138.84 0.6ZM160.64 0.6L160.64 0.6Q158.34 0.6 156.31-0.25 154.29-1.1 152.79-2.73 151.29-4.35 150.41-6.68 149.54-9 149.54-11.95L149.54-11.95Q149.54-14.9 150.41-17.25 151.29-19.6 152.76-21.23 154.24-22.85 156.11-23.73 157.99-24.6 159.99-24.6L159.99-24.6Q164.29-24.6 166.74-21.7 169.19-18.8 169.19-13.5L169.19-13.5Q169.19-13.05 169.19-12.6 169.19-12.15 169.09-11.7L169.09-11.7 151.79-11.7Q151.84-9.45 152.49-7.53 153.14-5.6 154.31-4.23 155.49-2.85 157.14-2.08 158.79-1.3 160.84-1.3L160.84-1.3Q162.79-1.3 164.36-1.88 165.94-2.45 167.29-3.45L167.29-3.45 168.19-1.75Q166.74-0.9 165.01-0.15 163.29 0.6 160.64 0.6ZM151.79-13.5L151.79-13.5 167.09-13.5Q167.09-18.15 165.19-20.43 163.29-22.7 160.04-22.7L160.04-22.7Q158.49-22.7 157.09-22.08 155.69-21.45 154.56-20.25 153.44-19.05 152.71-17.35 151.99-15.65 151.79-13.5ZM197.63 0.6L197.63 0.6Q194.58 0.6 192.03-0.6 189.48-1.8 187.66-4.03 185.83-6.25 184.83-9.43 183.83-12.6 183.83-16.55L183.83-16.55Q183.83-20.45 184.86-23.6 185.88-26.75 187.73-28.98 189.58-31.2 192.16-32.38 194.73-33.55 197.88-33.55L197.88-33.55Q200.78-33.55 202.98-32.35 205.18-31.15 206.48-29.6L206.48-29.6 205.13-28.05Q203.78-29.6 201.98-30.53 200.18-31.45 197.93-31.45L197.93-31.45Q195.23-31.45 193.06-30.4 190.88-29.35 189.36-27.43 187.83-25.5 187.03-22.75 186.23-20 186.23-16.55L186.23-16.55Q186.23-13.1 187.03-10.33 187.83-7.55 189.33-5.6 190.83-3.65 192.96-2.58 195.08-1.5 197.73-1.5L197.73-1.5Q200.28-1.5 202.28-2.53 204.28-3.55 206.08-5.55L206.08-5.55 207.43-4.1Q205.53-1.9 203.18-0.65 200.83 0.6 197.63 0.6ZM222.63 0.6L222.63 0.6Q220.48 0.6 218.53-0.25 216.58-1.1 215.1-2.7 213.63-4.3 212.75-6.63 211.88-8.95 211.88-11.95L211.88-11.95Q211.88-14.95 212.75-17.32 213.63-19.7 215.1-21.3 216.58-22.9 218.53-23.75 220.48-24.6 222.63-24.6L222.63-24.6Q224.78-24.6 226.75-23.75 228.73-22.9 230.2-21.3 231.68-19.7 232.55-17.32 233.43-14.95 233.43-11.95L233.43-11.95Q233.43-8.95 232.55-6.63 231.68-4.3 230.2-2.7 228.73-1.1 226.75-0.25 224.78 0.6 222.63 0.6ZM222.63-1.35L222.63-1.35Q224.43-1.35 226-2.13 227.58-2.9 228.7-4.3 229.83-5.7 230.48-7.65 231.13-9.6 231.13-11.95L231.13-11.95Q231.13-14.35 230.48-16.3 229.83-18.25 228.7-19.68 227.58-21.1 226-21.88 224.43-22.65 222.63-22.65L222.63-22.65Q220.83-22.65 219.28-21.88 217.73-21.1 216.6-19.68 215.48-18.25 214.83-16.3 214.18-14.35 214.18-11.95L214.18-11.95Q214.18-9.6 214.83-7.65 215.48-5.7 216.6-4.3 217.73-2.9 219.28-2.13 220.83-1.35 222.63-1.35ZM242.83 0L240.63 0 240.63-24 242.53-24 242.73-20.3 242.88-20.3Q244.48-22.15 246.45-23.38 248.43-24.6 250.43-24.6L250.43-24.6Q253.33-24.6 254.88-23.28 256.43-21.95 257.08-19.7L257.08-19.7Q259.18-21.95 261.15-23.28 263.13-24.6 265.23-24.6L265.23-24.6Q272.43-24.6 272.43-15.4L272.43-15.4 272.43 0 270.18 0 270.18-15.1Q270.18-18.95 268.88-20.78 267.58-22.6 264.83-22.6L264.83-22.6Q261.58-22.6 257.63-18.1L257.63-18.1 257.63 0 255.43 0 255.43-15.1Q255.43-18.95 254.13-20.78 252.83-22.6 250.03-22.6L250.03-22.6Q246.78-22.6 242.83-18.1L242.83-18.1 242.83 0ZM283.42 10.85L281.22 10.85 281.22-24 283.12-24 283.32-21 283.47-21Q285.22-22.4 287.3-23.5 289.37-24.6 291.62-24.6L291.62-24.6Q296.42-24.6 298.82-21.28 301.22-17.95 301.22-12.35L301.22-12.35Q301.22-9.3 300.37-6.9 299.52-4.5 298.05-2.83 296.57-1.15 294.65-0.28 292.72 0.6 290.62 0.6L290.62 0.6Q288.92 0.6 287.12-0.18 285.32-0.95 283.42-2.35L283.42-2.35 283.42 10.85ZM290.52-1.35L290.52-1.35Q292.32-1.35 293.87-2.15 295.42-2.95 296.52-4.4 297.62-5.85 298.25-7.88 298.87-9.9 298.87-12.35L298.87-12.35Q298.87-14.55 298.45-16.45 298.02-18.35 297.12-19.73 296.22-21.1 294.77-21.88 293.32-22.65 291.27-22.65L291.27-22.65Q289.47-22.65 287.55-21.63 285.62-20.6 283.42-18.7L283.42-18.7 283.42-4.45Q285.52-2.75 287.32-2.05 289.12-1.35 290.52-1.35ZM315.32 0.6L315.32 0.6Q311.57 0.6 309.82-1.65 308.07-3.9 308.07-8.6L308.07-8.6 308.07-24 310.27-24 310.27-8.9Q310.27-5.05 311.55-3.23 312.82-1.4 315.72-1.4L315.72-1.4Q317.87-1.4 319.62-2.58 321.37-3.75 323.47-6.3L323.47-6.3 323.47-24 325.67-24 325.67 0 323.82 0 323.57-4 323.47-4Q321.72-1.9 319.77-0.65 317.82 0.6 315.32 0.6ZM341.42 0.6L341.42 0.6Q339.67 0.6 338.52 0.08 337.37-0.45 336.67-1.4 335.97-2.35 335.69-3.7 335.42-5.05 335.42-6.65L335.42-6.65 335.42-22.1 331.67-22.1 331.67-23.8 335.47-24 335.77-30.95 337.67-30.95 337.67-24 344.62-24 344.62-22.1 337.67-22.1 337.67-6.45Q337.67-5.3 337.84-4.38 338.02-3.45 338.47-2.78 338.92-2.1 339.69-1.73 340.47-1.35 341.72-1.35L341.72-1.35Q342.42-1.35 343.24-1.58 344.07-1.8 344.72-2.1L344.72-2.1 345.32-0.3Q344.27 0.1 343.22 0.35 342.17 0.6 341.42 0.6ZM352.67 0L350.47 0 350.47-24 352.67-24 352.67 0ZM351.62-29.8L351.62-29.8Q350.77-29.8 350.19-30.35 349.62-30.9 349.62-31.75L349.62-31.75Q349.62-32.7 350.19-33.23 350.77-33.75 351.62-33.75L351.62-33.75Q352.47-33.75 353.04-33.23 353.62-32.7 353.62-31.75L353.62-31.75Q353.62-30.9 353.04-30.35 352.47-29.8 351.62-29.8ZM364.11 0L361.91 0 361.91-24 363.81-24 364.01-20.3 364.16-20.3Q366.01-22.15 367.96-23.38 369.91-24.6 372.41-24.6L372.41-24.6Q376.16-24.6 377.91-22.35 379.66-20.1 379.66-15.4L379.66-15.4 379.66 0 377.46 0 377.46-15.1Q377.46-18.95 376.19-20.78 374.91-22.6 371.96-22.6L371.96-22.6Q369.81-22.6 368.06-21.48 366.31-20.35 364.11-18.1L364.11-18.1 364.11 0ZM396.36 11.55L396.36 11.55Q391.81 11.55 389.16 9.75 386.51 7.95 386.51 4.9L386.51 4.9Q386.51 3.3 387.46 1.8 388.41 0.3 390.06-0.9L390.06-0.9 390.06-1.1Q389.16-1.65 388.56-2.6 387.96-3.55 387.96-4.95L387.96-4.95Q387.96-6.55 388.86-7.68 389.76-8.8 390.56-9.35L390.56-9.35 390.56-9.55Q389.41-10.55 388.49-12.25 387.56-13.95 387.56-16.15L387.56-16.15Q387.56-18 388.21-19.55 388.86-21.1 390.01-22.23 391.16-23.35 392.71-23.98 394.26-24.6 396.01-24.6L396.01-24.6Q397.01-24.6 397.81-24.43 398.61-24.25 399.16-24L399.16-24 407.31-24 407.31-22.15 401.71-22.15Q402.86-21.15 403.61-19.58 404.36-18 404.36-16.1L404.36-16.1Q404.36-14.25 403.71-12.7 403.06-11.15 401.94-10.03 400.81-8.9 399.29-8.28 397.76-7.65 396.01-7.65L396.01-7.65Q395.01-7.65 393.94-7.9 392.86-8.15 392.01-8.65L392.01-8.65Q391.21-8 390.64-7.2 390.06-6.4 390.06-5.2L390.06-5.2Q390.06-3.9 391.01-2.98 391.96-2.05 394.66-2.05L394.66-2.05 399.81-2.05Q403.86-2.05 405.79-0.73 407.71 0.6 407.71 3.45L407.71 3.45Q407.71 5 406.91 6.48 406.11 7.95 404.64 9.08 403.16 10.2 401.06 10.88 398.96 11.55 396.36 11.55ZM396.01-9.4L396.01-9.4Q397.26-9.4 398.39-9.88 399.51-10.35 400.36-11.25 401.21-12.15 401.71-13.4 402.21-14.65 402.21-16.15L402.21-16.15Q402.21-17.65 401.71-18.9 401.21-20.15 400.39-21 399.56-21.85 398.41-22.33 397.26-22.8 396.01-22.8L396.01-22.8Q394.71-22.8 393.59-22.33 392.46-21.85 391.61-21 390.76-20.15 390.26-18.93 389.76-17.7 389.76-16.15L389.76-16.15Q389.76-14.65 390.26-13.4 390.76-12.15 391.64-11.25 392.51-10.35 393.64-9.88 394.76-9.4 396.01-9.4ZM396.61 9.75L396.61 9.75Q398.61 9.75 400.26 9.22 401.91 8.7 403.06 7.85 404.21 7 404.84 5.93 405.46 4.85 405.46 3.7L405.46 3.7Q405.46 1.7 404.04 0.88 402.61 0.05 399.91 0.05L399.91 0.05 394.76 0.05Q394.36 0.05 393.54-0.03 392.71-0.1 391.76-0.35L391.76-0.35Q390.11 0.8 389.36 2.1 388.61 3.4 388.61 4.7L388.61 4.7Q388.61 6.95 390.69 8.35 392.76 9.75 396.61 9.75ZM425.41 0L423.11 0 423.11-32.95 425.41-32.95 425.41 0ZM437.05 0L434.85 0 434.85-24 436.75-24 436.95-20.3 437.1-20.3Q438.95-22.15 440.9-23.38 442.85-24.6 445.35-24.6L445.35-24.6Q449.1-24.6 450.85-22.35 452.6-20.1 452.6-15.4L452.6-15.4 452.6 0 450.4 0 450.4-15.1Q450.4-18.95 449.13-20.78 447.85-22.6 444.9-22.6L444.9-22.6Q442.75-22.6 441-21.48 439.25-20.35 437.05-18.1L437.05-18.1 437.05 0ZM467.25 0.6L467.25 0.6Q464.55 0.6 462.3-0.38 460.05-1.35 458.45-2.7L458.45-2.7 459.75-4.35Q461.3-3.05 463.05-2.18 464.8-1.3 467.4-1.3L467.4-1.3Q470.25-1.3 471.68-2.73 473.1-4.15 473.1-6.05L473.1-6.05Q473.1-7.15 472.58-8 472.05-8.85 471.2-9.45 470.35-10.05 469.33-10.5 468.3-10.95 467.25-11.35L467.25-11.35Q465.9-11.85 464.53-12.4 463.15-12.95 462.05-13.73 460.95-14.5 460.28-15.58 459.6-16.65 459.6-18.2L459.6-18.2Q459.6-19.5 460.1-20.68 460.6-21.85 461.6-22.73 462.6-23.6 464.03-24.1 465.45-24.6 467.35-24.6L467.35-24.6Q469.25-24.6 471.08-23.9 472.9-23.2 474.2-22.1L474.2-22.1 473-20.55Q471.8-21.45 470.45-22.08 469.1-22.7 467.25-22.7L467.25-22.7Q465.85-22.7 464.85-22.33 463.85-21.95 463.18-21.35 462.5-20.75 462.18-19.95 461.85-19.15 461.85-18.35L461.85-18.35Q461.85-17.3 462.33-16.57 462.8-15.85 463.6-15.3 464.4-14.75 465.43-14.33 466.45-13.9 467.5-13.5L467.5-13.5Q468.9-12.95 470.3-12.4 471.7-11.85 472.83-11.05 473.95-10.25 474.65-9.08 475.35-7.9 475.35-6.15L475.35-6.15Q475.35-4.8 474.83-3.58 474.3-2.35 473.25-1.43 472.2-0.5 470.7 0.05 469.2 0.6 467.25 0.6ZM487.25 0.6L487.25 0.6Q485.5 0.6 484.35 0.08 483.2-0.45 482.5-1.4 481.8-2.35 481.52-3.7 481.25-5.05 481.25-6.65L481.25-6.65 481.25-22.1 477.5-22.1 477.5-23.8 481.3-24 481.6-30.95 483.5-30.95 483.5-24 490.45-24 490.45-22.1 483.5-22.1 483.5-6.45Q483.5-5.3 483.67-4.38 483.85-3.45 484.3-2.78 484.75-2.1 485.52-1.73 486.3-1.35 487.55-1.35L487.55-1.35Q488.25-1.35 489.07-1.58 489.9-1.8 490.55-2.1L490.55-2.1 491.15-0.3Q490.1 0.1 489.05 0.35 488 0.6 487.25 0.6ZM498.5 0L496.3 0 496.3-24 498.5-24 498.5 0ZM497.45-29.8L497.45-29.8Q496.6-29.8 496.02-30.35 495.45-30.9 495.45-31.75L495.45-31.75Q495.45-32.7 496.02-33.23 496.6-33.75 497.45-33.75L497.45-33.75Q498.3-33.75 498.87-33.23 499.45-32.7 499.45-31.75L499.45-31.75Q499.45-30.9 498.87-30.35 498.3-29.8 497.45-29.8ZM514.29 0.6L514.29 0.6Q512.54 0.6 511.39 0.08 510.24-0.45 509.54-1.4 508.84-2.35 508.57-3.7 508.29-5.05 508.29-6.65L508.29-6.65 508.29-22.1 504.54-22.1 504.54-23.8 508.34-24 508.64-30.95 510.54-30.95 510.54-24 517.49-24 517.49-22.1 510.54-22.1 510.54-6.45Q510.54-5.3 510.72-4.38 510.89-3.45 511.34-2.78 511.79-2.1 512.57-1.73 513.34-1.35 514.59-1.35L514.59-1.35Q515.29-1.35 516.12-1.58 516.94-1.8 517.59-2.1L517.59-2.1 518.19-0.3Q517.14 0.1 516.09 0.35 515.04 0.6 514.29 0.6ZM530.24 0.6L530.24 0.6Q526.49 0.6 524.74-1.65 522.99-3.9 522.99-8.6L522.99-8.6 522.99-24 525.19-24 525.19-8.9Q525.19-5.05 526.47-3.23 527.74-1.4 530.64-1.4L530.64-1.4Q532.79-1.4 534.54-2.58 536.29-3.75 538.39-6.3L538.39-6.3 538.39-24 540.59-24 540.59 0 538.74 0 538.49-4 538.39-4Q536.64-1.9 534.69-0.65 532.74 0.6 530.24 0.6ZM556.34 0.6L556.34 0.6Q554.59 0.6 553.44 0.08 552.29-0.45 551.59-1.4 550.89-2.35 550.61-3.7 550.34-5.05 550.34-6.65L550.34-6.65 550.34-22.1 546.59-22.1 546.59-23.8 550.39-24 550.69-30.95 552.59-30.95 552.59-24 559.54-24 559.54-22.1 552.59-22.1 552.59-6.45Q552.59-5.3 552.76-4.38 552.94-3.45 553.39-2.78 553.84-2.1 554.61-1.73 555.39-1.35 556.64-1.35L556.64-1.35Q557.34-1.35 558.16-1.58 558.99-1.8 559.64-2.1L559.64-2.1 560.24-0.3Q559.19 0.1 558.14 0.35 557.09 0.6 556.34 0.6ZM573.94 0.6L573.94 0.6Q571.64 0.6 569.61-0.25 567.59-1.1 566.09-2.73 564.59-4.35 563.71-6.68 562.84-9 562.84-11.95L562.84-11.95Q562.84-14.9 563.71-17.25 564.59-19.6 566.06-21.23 567.54-22.85 569.41-23.73 571.29-24.6 573.29-24.6L573.29-24.6Q577.59-24.6 580.04-21.7 582.49-18.8 582.49-13.5L582.49-13.5Q582.49-13.05 582.49-12.6 582.49-12.15 582.39-11.7L582.39-11.7 565.09-11.7Q565.14-9.45 565.79-7.53 566.44-5.6 567.61-4.23 568.79-2.85 570.44-2.08 572.09-1.3 574.14-1.3L574.14-1.3Q576.09-1.3 577.66-1.88 579.24-2.45 580.59-3.45L580.59-3.45 581.49-1.75Q580.04-0.9 578.31-0.15 576.59 0.6 573.94 0.6ZM565.09-13.5L565.09-13.5 580.39-13.5Q580.39-18.15 578.49-20.43 576.59-22.7 573.34-22.7L573.34-22.7Q571.79-22.7 570.39-22.08 568.99-21.45 567.86-20.25 566.74-19.05 566.01-17.35 565.29-15.65 565.09-13.5Z" opacity="1" transform="matrix(1,0,0,1,0,0)" fill="#ffffff" class="slogan-text-1" data-fill-palette-color="secondary" id="text-1"></path></svg></g></svg></g></svg></g></svg></g><g transform="matrix(1,0,0,1,0,32.81708326773427)"><svg viewBox="0 0 122.21567999999999 120.1331463928547" height="120.1331463928547" width="122.21567999999999"><g><svg xmlns="http://www.w3.org/2000/svg" xmlns:xlink="http://www.w3.org/1999/xlink" version="1.1" x="0" y="0" viewBox="-345.9993896484375 257.947998046875 99.75178527832031 98.05203247070312" enable-background="new -346 256 100 100" xml:space="preserve" width="122.21567999999999" height="120.1331463928547" class="icon-icon-0" data-fill-palette-color="accent" id="icon-0"></svg></g></svg></g></svg></g><defs></defs><mask id="2d4a78e9-0b9f-4d40-97b3-80986217b725"><g id="SvgjsG1073"><svg viewBox="0 0 395.52 123.86001460959007" height="123.86001460959007" width="395.52"><g><svg viewBox="0 0 593.2074837953515 185.76731292832324" height="123.86001460959007" width="395.52"><g></g><g transform="matrix(1,0,0,1,197.6874837953516,0.46210774360278606)"><svg viewBox="0 0 395.52 184.84309744111766" height="184.84309744111766" width="395.52"><g id="SvgjsG1071"><svg viewBox="0 0 395.52 184.84309744111766" height="184.84309744111766" width="395.52" id="SvgjsSvg1070"><g><svg viewBox="0 0 395.52 134.2119340329835" height="134.2119340329835" width="395.52"><g transform="matrix(1,0,0,1,0,0)"><svg width="395.52" viewBox="3.049999952316284 -33.70000076293945 100.03999328613281 33.95000076293945" height="134.2119340329835" data-palette-color="#233565"><g class="wordmark-text-0" data-fill-palette-color="primary" id="SvgjsG1069"></g></svg></g></svg></g><g transform="matrix(1,0,0,1,0,165.8961505717541)"><svg viewBox="0 0 232.209792 18.946946869363565" height="18.946946869363565" width="232.209792"><g transform="matrix(1,0,0,1,0,0)"><svg width="232.209792" viewBox="0.4000000059604645 -35.95000076293945 582.0899658203125 47.5" height="18.946946869363565" data-palette-color="#233565"></svg></g></svg></g></svg></g></svg></g><g transform="matrix(1,0,0,1,0,32.81708326773427)"><svg viewBox="0 0 122.21567999999999 120.1331463928547" height="120.1331463928547" width="122.21567999999999"><g><svg xmlns="http://www.w3.org/2000/svg" xmlns:xlink="http://www.w3.org/1999/xlink" version="1.1" x="0" y="0" viewBox="-345.9993896484375 257.947998046875 99.75178527832031 98.05203247070312" enable-background="new -346 256 100 100" xml:space="preserve" width="122.21567999999999" height="120.1331463928547" class="icon-icon-0" data-fill-palette-color="accent" id="SvgjsSvg1067"><path d="M-246.455 327.152l-16.86-64.454c0 0-1.243-4.756-6.002-4.75l-72.96 0.08c0 0-4.759 0.004-3.515 4.761l15.835 60.538c7.148-15.684 15.203-33.301 15.795-34.599l0.423-0.924 21.84-0.021-1.048 2.253c-5.985 12.87-13.768 29.775-19.236 41.944l62.212-0.067C-249.97 331.912-245.211 331.906-246.455 327.152z" fill="white"></path><path d="M-296.864 290.954l-14.839 0.015c-9.094 19.892-25.758 56.396-26.425 58.074-1.594 4.007 0.346 6.235 1.171 6.957h56.176l-1.875-4.804h-35.137c-0.044 0.002-0.107 0.005-0.184 0.005-1.988 0-3.998-1.204-4.006-3.894-0.002-0.629-0.004-1.579 13.149-30.369C-303.924 306.194-298.966 295.487-296.864 290.954z" fill="white"></path></svg></g></svg></g></svg></g><defs><mask></mask></defs></svg></g></mask><linearGradient x1="0" x2="1" y1="0.5" y2="0.5" id="e7cbe1d8-8199-4ebe-b8f8-dadb032c9678"><stop stop-color="#ffa62e" offset="0"></stop><stop stop-color="#f71b3d" offset="1"></stop></linearGradient><rect width="395.5199890136719" height="123.86001586914062" fill="#ffffff" mask="url(#2d4a78e9-0b9f-4d40-97b3-80986217b725)" data-fill-palette-color="accent"></rect></svg><rect width="395.52" height="123.86001460959007" fill="none" stroke="none" visibility="hidden"></rect></g></svg></g></svg>